<svg t="1700931004987" class="icon" viewBox="0 0 1024 1024" version="1.1" xmlns="http://www.w3.org/2000/svg" p-id="3854" width="200" height="200"><path d="M685.248 640l211.424 211.424-45.248 45.248L640 685.248V800a32 32 0 0 1-64 0V608a31.904 31.904 0 0 1 32-32h192a32 32 0 0 1 0 64H685.248z m-346.496 0L127.328 851.424l45.248 45.248L384 685.248V800a32 32 0 0 0 64 0V608a31.904 31.904 0 0 0-32-32H224a32 32 0 0 0 0 64h114.752z m0-256L127.328 172.576l45.248-45.216L384 338.752V224a32 32 0 0 1 64 0v192a31.904 31.904 0 0 1-32 32H224a32 32 0 0 1 0-64h114.752z m346.496 0l211.424-211.424-45.248-45.248L640 338.752V224a32 32 0 0 0-64 0v192a31.904 31.904 0 0 0 32 32h192a32 32 0 0 0 0-64H685.248z" p-id="3855"></path></svg>
