<svg t="1700930896951" class="icon" viewBox="0 0 1024 1024" version="1.1" xmlns="http://www.w3.org/2000/svg" p-id="12194" width="200" height="200"><path d="M671.752 140.504v0.24l-58.504 58.256 163.504 0.752-168 168 46.752 46.744 166.744-166.992 0.752 161.744 58.248-58.248 0.248-210.248-209.744-0.256z m-318.752 0.24l-209.752 0.256 0.256 210.248 58.24 58.256 0.76-161.76 166.744 166.76L416 367.744 248 200l163.504-0.752-58.504-58.496z m15.504 467.504L201.488 775l-0.744-161.752-58.256 58.248v210.256L352 882l58.504-58.504-163.256-0.744 167.752-167.752-46.504-46.752zM656 609.248L609.248 656l168 168-163.496 0.504 58.496 58.496 209.752-0.248-0.248-210.248-58.248-58L822.752 776 656 609.248z" p-id="12195"></path></svg>
